<?xml version="1.0" standalone="yes"?>
<svg width="36" height="36">
<path style="fill:#cbad5a; stroke:none;" d="M0 0L0 13C3.64244 7.84109 6.76339 3.12017 13 1C9.04132 -0.661137 4.2634 0 0 0z"/>
<path style="fill:#483e20; stroke:none;" d="M13.6667 0.333332C13.2222 0.777775 14.2778 0.722225 14.3333 0.666668C14.7778 0.22221 13.7222 0.277782 13.6667 0.333332z"/>
<path style="fill:#000000; stroke:none;" d="M15 0.483025C-7.07778 4.18537 -2.24763 38.6026 20 35.5455C43.4857 32.3184 38.2672 -3.41878 15 0.483025z"/>
<path style="fill:#483e20; stroke:none;" d="M20 0C21.2484 0.684803 21.5484 0.748795 23 1C21.7516 0.315197 21.4516 0.251205 20 0z"/>
<path style="fill:#cbad5a; stroke:none;" d="M23 0C28.1589 3.64244 32.8798 6.76339 35 13C36.6611 9.04132 36 4.26341 36 0L23 0z"/>
<path style="fill:#84713b; stroke:none;" d="M10 1L11 2L10 1M25 1L26 2L25 1z"/>
<path style="fill:#957f42; stroke:none;" d="M8 2L9 3L8 2M27 2L28 3L27 2z"/>
<path style="fill:#514524; stroke:none;" d="M7 3L8 4L7 3z"/>
<path style="fill:#4b4b4b; stroke:none;" d="M13 3L14 4L13 3z"/>
<path style="fill:#919191; stroke:none;" d="M14 3L15 4L14 3z"/>
<path style="fill:#ffffff; stroke:none;" d="M8 8L28 8C22.5558 1.80936 13.4133 1.8021 8 8z"/>
<path style="fill:#c6c6c6; stroke:none;" d="M20 3L21 4L20 3z"/>
<path style="fill:#919191; stroke:none;" d="M21 3L22 4L21 3z"/>
<path style="fill:#4b4b4b; stroke:none;" d="M22 3L23 4L22 3z"/>
<path style="fill:#514524; stroke:none;" d="M28 3L29 4L28 3z"/>
<path style="fill:#7e7e7e; stroke:none;" d="M11 4L12 5L11 4M24 4L25 5L24 4z"/>
<path style="fill:#555555; stroke:none;" d="M9 5L10 6L9 5M26 5L27 6L26 5z"/>
<path style="fill:#949494; stroke:none;" d="M8 6L9 7L8 6M27 6L28 7L27 6z"/>
<path style="fill:#504423; stroke:none;" d="M3 7L4 8L3 7z"/>
<path style="fill:#ababab; stroke:none;" d="M7 7L8 8L7 7M28 7L29 8L28 7z"/>
<path style="fill:#504423; stroke:none;" d="M32 7L33 8L32 7z"/>
<path style="fill:#957f42; stroke:none;" d="M2 8L3 9L2 8M33 8L34 9L33 8z"/>
<path style="fill:#555555; stroke:none;" d="M5 9L6 10L5 9z"/>
<path style="fill:#ffffff; stroke:none;" d="M7 9L7 14L12 14L12 9L7 9M13 9L13 14L18 14L18 9L13 9M19 9L19 14L24 14L24 9L19 9M25 9L25 14L29 14L29 9L25 9z"/>
<path style="fill:#565656; stroke:none;" d="M30 9L31 10L30 9z"/>
<path style="fill:#84713b; stroke:none;" d="M1 10L2 11L1 10z"/>
<path style="fill:#ffffff; stroke:none;" d="M5 10C3.12549 15.9154 3.32984 20.0567 5 26C6.81229 21.6811 6.81229 14.3189 5 10M30 10L30 26C33.496 21.0931 33.613 14.8554 30 10z"/>
<path style="fill:#84713b; stroke:none;" d="M34 10L35 11L34 10z"/>
<path style="fill:#7f7f7f; stroke:none;" d="M4 11L5 12L4 11M31 11L32 12L31 11z"/>
<path style="fill:#483e20; stroke:none;" d="M0.333333 13.6667C0.27778 13.7222 0.222223 14.7778 0.666667 14.3333C0.722224 14.2778 0.777777 13.2222 0.333333 13.6667z"/>
<path style="fill:#4b4b4b; stroke:none;" d="M3 13L4 14L3 13M32 13L33 14L32 13z"/>
<path style="fill:#483e20; stroke:none;" d="M35.3333 13.6667C35.2778 13.7222 35.2222 14.7778 35.6667 14.3333C35.7222 14.2778 35.7778 13.2222 35.3333 13.6667z"/>
<path style="fill:#929292; stroke:none;" d="M3 14L4 15L3 14M32 14L33 15L32 14z"/>
<path style="fill:#ffffff; stroke:none;" d="M7 15L7 21L12 21L12 15L7 15M13 15L13 19C14.084 17.1375 14.0732 16.8825 13 15z"/>
<path style="fill:#972c2c; stroke:none;" d="M14 15L15 16L14 15z"/>
<path style="fill:#f9f4f4; stroke:none;" d="M15 15L16 16L15 15z"/>
<path style="fill:#b87f7f; stroke:none;" d="M16 15L14 16C15.482 16.7912 16.7964 16.8698 16 15z"/>
<path style="fill:#ddc5c5; stroke:none;" d="M17 15L18 16L17 15z"/>
<path style="fill:#ffffff; stroke:none;" d="M19 15L19 21L24 21L24 15L19 15M25 15L25 21L29 21L29 15L25 15M17 16C16.7761 17.6839 16.7817 18.3135 17 20C15.3161 19.7761 14.6865 19.7817 13 20C14.769 20.7789 16.0359 20.9124 18 21C17.9124 19.0359 17.7789 17.769 17 16z"/>
<path style="fill:#8e0606; stroke:none;" d="M15 17L16 18L15 17z"/>
<path style="fill:#a04646; stroke:none;" d="M14 18L14 20C15.6352 19.4549 15.4549 19.6352 16 18L14 18z"/>
<path style="fill:#b87f7f; stroke:none;" d="M16 18L17 19L16 18z"/>
<path style="fill:#ddc5c5; stroke:none;" d="M13 19L14 20L13 19z"/>
<path style="fill:#972c2c; stroke:none;" d="M16 19L17 20L16 19z"/>
<path style="fill:#c5c5c5; stroke:none;" d="M3 20L4 21L3 20M32 20L33 21L32 20z"/>
<path style="fill:#776635; stroke:none;" d="M0.333333 21.6667C0.27778 21.7222 0.222221 22.7778 0.666667 22.3333C0.722223 22.2778 0.777778 21.2222 0.333333 21.6667z"/>
<path style="fill:#929292; stroke:none;" d="M3 21L4 22L3 21z"/>
<path style="fill:#939393; stroke:none;" d="M32 21L33 22L32 21z"/>
<path style="fill:#776635; stroke:none;" d="M35.3333 21.6667C35.2778 21.7222 35.2222 22.7778 35.6667 22.3333C35.7222 22.2778 35.7778 21.2222 35.3333 21.6667z"/>
<path style="fill:#4b4b4b; stroke:none;" d="M3 22L4 23L3 22z"/>
<path style="fill:#ffffff; stroke:none;" d="M7 22L7 27L12 27L12 22L7 22M13 22L13 27L18 27L18 22L13 22M19 22L19 27L24 27L24 22L19 22M25 22L25 27L29 27L29 22L25 22z"/>
<path style="fill:#4b4b4b; stroke:none;" d="M32 22L33 23L32 22z"/>
<path style="fill:#cbad5a; stroke:none;" d="M0 23L0 36L13 36C7.55395 32.1548 3.84517 28.446 0 23M35 23C33.0399 28.7657 28.7657 33.0399 23 35C26.9587 36.6611 31.7366 36 36 36C36 31.7366 36.6611 26.9587 35 23z"/>
<path style="fill:#7f7f7f; stroke:none;" d="M4 24L5 25L4 24z"/>
<path style="fill:#808080; stroke:none;" d="M31 24L32 25L31 24z"/>
<path style="fill:#84713b; stroke:none;" d="M1 25L2 26L1 25M34 25L35 26L34 25z"/>
<path style="fill:#555555; stroke:none;" d="M5 26L6 27L5 26z"/>
<path style="fill:#565656; stroke:none;" d="M30 26L31 27L30 26z"/>
<path style="fill:#957f42; stroke:none;" d="M2 27L3 28L2 27z"/>
<path style="fill:#947e42; stroke:none;" d="M33 27L34 28L33 27z"/>
<path style="fill:#4d4222; stroke:none;" d="M3 28L4 29L3 28z"/>
<path style="fill:#ababab; stroke:none;" d="M7 28L8 29L7 28z"/>
<path style="fill:#ffffff; stroke:none;" d="M8 28C13.4133 34.1979 22.5558 34.1906 28 28L8 28z"/>
<path style="fill:#ababab; stroke:none;" d="M28 28L29 29L28 28z"/>
<path style="fill:#4e4223; stroke:none;" d="M32 28L33 29L32 28z"/>
<path style="fill:#949494; stroke:none;" d="M8 29L9 30L8 29M27 29L28 30L27 29z"/>
<path style="fill:#575757; stroke:none;" d="M9 30L10 31L9 30M26 30L27 31L26 30z"/>
<path style="fill:#808080; stroke:none;" d="M11 31L12 32L11 31M24 31L25 32L24 31z"/>
<path style="fill:#514524; stroke:none;" d="M7 32L8 33L7 32z"/>
<path style="fill:#4c4c4c; stroke:none;" d="M13 32L14 33L13 32z"/>
<path style="fill:#929292; stroke:none;" d="M14 32L15 33L14 32z"/>
<path style="fill:#c7c7c7; stroke:none;" d="M20 32L21 33L20 32z"/>
<path style="fill:#929292; stroke:none;" d="M21 32L22 33L21 32z"/>
<path style="fill:#4c4c4c; stroke:none;" d="M22 32L23 33L22 32z"/>
<path style="fill:#514524; stroke:none;" d="M28 32L29 33L28 32z"/>
<path style="fill:#947e42; stroke:none;" d="M8 33L9 34L8 33M27 33L28 34L27 33z"/>
<path style="fill:#84713b; stroke:none;" d="M10 34L11 35L10 34z"/>
<path style="fill:#83703a; stroke:none;" d="M25 34L26 35L25 34z"/>
<path style="fill:#473c1f; stroke:none;" d="M13.6667 35.3333C13.2222 35.7778 14.2778 35.7222 14.3333 35.6667C14.7778 35.2222 13.7222 35.2778 13.6667 35.3333M20 35C21.2484 35.6848 21.5484 35.7488 23 36C21.7516 35.3152 21.4516 35.2512 20 35z"/>
</svg>
