<?xml version="1.0" encoding="UTF-8" ?>
<!DOCTYPE svg PUBLIC "-//W3C//DTD SVG 1.1//EN" "http://www.w3.org/Graphics/SVG/1.1/DTD/svg11.dtd">
<svg width="100pt" height="100pt" viewBox="0 0 100 100" version="1.1" xmlns="http://www.w3.org/2000/svg">
<path fill="#ffffff" d=" M 0.00 0.00 L 100.00 0.00 L 100.00 100.00 L 0.00 100.00 L 0.00 0.00 Z" />
<path fill="#d42f2f" d=" M 43.50 28.25 C 52.59 19.36 61.65 10.43 70.74 1.53 C 68.65 13.52 66.30 25.47 64.46 37.51 C 71.13 34.82 77.71 31.89 84.45 29.38 C 81.39 33.23 78.21 36.99 74.96 40.68 C 82.25 43.63 89.55 46.59 96.76 49.74 C 87.77 53.50 78.67 57.00 69.58 60.51 C 78.25 67.88 86.93 75.24 95.48 82.75 C 87.32 81.68 79.15 80.70 70.98 79.73 C 72.74 85.05 74.55 90.35 76.17 95.71 C 69.18 89.25 62.38 82.59 55.50 76.00 C 54.27 80.61 52.98 85.20 51.49 89.73 C 50.13 86.18 48.89 82.58 47.54 79.01 C 43.51 85.00 39.48 91.00 35.49 97.01 C 35.20 87.36 36.29 77.73 35.99 68.07 C 31.60 77.34 27.42 86.71 23.04 95.99 C 22.82 89.95 22.66 83.91 22.62 77.87 C 15.50 84.18 8.63 90.78 1.35 96.92 C 7.91 83.93 14.82 71.12 21.61 58.25 C 16.38 55.90 10.95 54.02 5.72 51.68 C 11.87 50.86 18.04 50.24 24.20 49.46 C 17.50 34.16 10.96 18.79 4.61 3.33 C 14.39 11.82 23.77 20.76 33.39 29.42 C 34.74 21.95 35.96 14.45 37.45 7.00 C 39.80 13.99 41.36 21.20 43.50 28.25 Z" />
<path fill="#ffd338" d=" M 47.91 28.94 C 53.85 22.93 60.13 17.24 65.84 11.00 C 64.53 16.66 63.69 22.40 62.59 28.10 C 61.86 32.06 60.98 36.12 61.72 40.15 C 65.32 41.14 68.88 39.77 72.19 38.49 C 72.12 39.98 72.06 41.48 72.00 42.97 C 76.88 45.74 82.18 47.64 87.39 49.68 C 80.43 52.33 73.42 54.89 66.64 57.98 C 66.64 59.60 66.64 61.21 66.64 62.82 C 72.47 68.04 78.49 73.02 84.48 78.04 C 79.22 77.17 73.91 76.60 68.58 76.46 C 68.44 78.58 68.17 80.69 67.86 82.80 C 64.64 79.77 61.75 76.36 58.21 73.70 C 56.55 73.17 54.77 73.25 53.05 73.07 C 52.35 74.70 51.73 76.36 51.18 78.04 C 50.80 77.60 50.03 76.73 49.65 76.29 C 48.16 76.28 46.66 76.27 45.17 76.25 C 42.89 79.18 40.80 82.26 38.81 85.40 C 38.79 78.76 39.88 72.05 38.47 65.48 C 36.64 65.52 34.81 65.55 32.98 65.57 C 30.65 70.68 28.22 75.75 26.00 80.91 C 25.40 79.19 26.77 75.39 23.97 75.23 C 19.55 74.10 16.82 78.23 13.93 80.74 C 17.05 74.92 20.11 69.08 23.22 63.26 C 24.48 61.06 24.58 58.50 24.81 56.05 C 22.75 55.08 20.67 54.13 18.58 53.23 C 21.16 53.01 23.82 53.05 26.33 52.29 C 27.43 49.37 26.85 46.13 25.56 43.37 C 21.65 34.53 18.09 25.53 14.10 16.72 C 19.63 22.00 25.34 27.10 30.99 32.26 C 32.61 32.34 34.23 32.42 35.86 32.51 C 36.99 29.06 37.83 25.51 38.13 21.88 C 38.97 24.93 39.85 27.98 40.97 30.94 C 43.36 30.65 46.23 31.10 47.91 28.94 Z" />
</svg>
