<?xml version="1.0" encoding="UTF-8" ?>
<!DOCTYPE svg PUBLIC "-//W3C//DTD SVG 1.1//EN" "http://www.w3.org/Graphics/SVG/1.1/DTD/svg11.dtd">
<svg width="36pt" height="36pt" viewBox="0 0 36 36" version="1.1" xmlns="http://www.w3.org/2000/svg">
<path fill="#cbad5a" d=" M 0.00 0.00 L 16.12 0.00 C 7.97 0.93 1.28 7.58 0.00 15.63 L 0.00 0.00 Z" />
<path fill="#4e4d4c" d=" M 16.12 0.00 L 20.37 0.00 C 28.41 1.28 35.06 7.95 36.00 16.10 L 36.00 20.37 C 34.72 28.42 28.05 35.06 19.91 36.00 L 15.62 36.00 C 7.58 34.72 0.95 28.05 0.00 19.92 L 0.00 15.63 C 1.28 7.58 7.97 0.93 16.12 0.00 Z" />
<path fill="#cbad5a" d=" M 20.37 0.00 L 36.00 0.00 L 36.00 16.10 C 35.06 7.95 28.41 1.28 20.37 0.00 Z" />
<path fill="#ffffff" d=" M 13.42 3.72 C 21.24 0.97 30.52 6.07 32.48 14.09 C 34.89 22.07 29.28 31.14 21.13 32.67 C 13.30 34.57 4.78 28.94 3.32 21.05 C 1.63 13.79 6.31 5.87 13.42 3.72 Z" />
<path fill="#4e4d4c" d=" M 7.33 12.97 C 10.81 10.11 13.48 5.82 18.09 4.73 C 18.40 7.73 17.65 10.84 18.43 13.77 C 20.86 15.70 23.00 20.35 26.61 18.36 C 28.65 19.92 30.29 21.91 30.22 24.64 C 29.67 24.62 28.58 24.59 28.03 24.57 L 29.39 25.84 C 27.15 26.77 24.24 27.77 22.25 25.77 C 20.49 24.40 21.15 22.15 21.62 20.34 C 19.92 18.71 18.27 17.02 16.81 15.18 C 14.42 15.05 12.02 14.88 9.76 14.04 C 11.45 12.73 13.58 12.60 15.63 12.84 C 15.81 12.29 16.18 11.19 16.37 10.64 C 16.41 9.50 16.46 8.37 16.51 7.24 C 13.90 9.85 9.66 11.30 9.16 15.45 C 8.70 14.83 7.79 13.59 7.33 12.97 Z" />
<path fill="#cbad5a" d=" M 0.00 19.92 C 0.95 28.05 7.58 34.72 15.62 36.00 L 0.00 36.00 L 0.00 19.92 Z" />
<path fill="#cbad5a" d=" M 19.91 36.00 C 28.05 35.06 34.72 28.42 36.00 20.37 L 36.00 36.00 L 19.91 36.00 Z" />
</svg>
