<?xml version="1.0" standalone="yes"?>
<svg width="36" height="36">
<path style="fill:#cbad5a; stroke:none;" d="M0 0L0 13C4.16081 8.05415 6.8182 3.71934 13 1C9.04132 -0.661137 4.2634 0 0 0z"/>
<path style="fill:#7a6f52; stroke:none;" d="M13.6667 0.333332C13.2222 0.777775 14.2778 0.722225 14.3333 0.666668C14.7778 0.22221 13.7222 0.277782 13.6667 0.333332z"/>
<path style="fill:#4d4d4d; stroke:none;" d="M15 0.482254C-7.0714 4.11257 -2.32126 38.5854 20 35.5455C43.5189 32.3425 38.4139 -3.36888 15 0.482254z"/>
<path style="fill:#7a6f52; stroke:none;" d="M20 0C21.2484 0.684803 21.5484 0.748795 23 1C21.7516 0.315197 21.4516 0.251205 20 0z"/>
<path style="fill:#cbad5a; stroke:none;" d="M23 0C27.9459 4.1608 32.2807 6.8182 35 13C36.6611 9.04132 36 4.26341 36 0L23 0z"/>
<path style="fill:#818181; stroke:none;" d="M13 3L14 4L13 3z"/>
<path style="fill:#d7d7d7; stroke:none;" d="M14.6667 3.33333C14.2222 3.77777 15.2778 3.72223 15.3333 3.66667C15.7778 3.22221 14.7222 3.27777 14.6667 3.33333z"/>
<path style="fill:#ffffff; stroke:none;" d="M16 3.48302C-2.72416 6.62298 1.2598 35.1629 20 32.6312C38.7915 30.0925 34.5863 0.36618 16 3.48302z"/>
<path style="fill:#b2b2b2; stroke:none;" d="M21 3L22 4L21 3z"/>
<path style="fill:#818181; stroke:none;" d="M22 3L23 4L22 3z"/>
<path style="fill:#a5a5a5; stroke:none;" d="M11 4L12 5L11 4M24 4L25 5L24 4z"/>
<path style="fill:#888888; stroke:none;" d="M9 5L10 6L9 5M26 5L27 6L26 5z"/>
<path style="fill:#b4b4b4; stroke:none;" d="M8 6L9 7L8 6M27 6L28 7L27 6z"/>
<path style="fill:#c4c4c4; stroke:none;" d="M7 7L8 8L7 7M28 7L29 8L28 7z"/>
<path style="fill:#b4b4b4; stroke:none;" d="M6 8L7 9L6 8M29 8L30 9L29 8z"/>
<path style="fill:#888888; stroke:none;" d="M5 9L6 10L5 9z"/>
<path style="fill:#898989; stroke:none;" d="M30 9L31 10L30 9z"/>
<path style="fill:#969696; stroke:none;" d="M13 10L14 11L13 10z"/>
<path style="fill:#4d4d4d; stroke:none;" d="M14.1049 10.8511C8.11308 12.7068 10.9377 21.994 16.8951 20.1489C22.8869 18.2932 20.0623 9.00604 14.1049 10.8511z"/>
<path style="fill:#969696; stroke:none;" d="M17 10L18 11L17 10z"/>
<path style="fill:#a6a6a6; stroke:none;" d="M4 11L5 12L4 11z"/>
<path style="fill:#cdcdcd; stroke:none;" d="M11 11L12 12L11 11M19 11L20 12L19 11z"/>
<path style="fill:#a6a6a6; stroke:none;" d="M31 11L32 12L31 11z"/>
<path style="fill:#7a6f52; stroke:none;" d="M0.333333 13.6667C0.27778 13.7222 0.222223 14.7778 0.666667 14.3333C0.722224 14.2778 0.777777 13.2222 0.333333 13.6667z"/>
<path style="fill:#818181; stroke:none;" d="M3 13L4 14L3 13z"/>
<path style="fill:#949494; stroke:none;" d="M10 13L11 14L10 13z"/>
<path style="fill:#ffffff; stroke:none;" d="M14.6026 14.1566C12.8698 15.3145 14.6642 18.0015 16.3974 16.8434C18.1302 15.6855 16.3358 12.9985 14.6026 14.1566z"/>
<path style="fill:#969696; stroke:none;" d="M20 13L21 14L20 13z"/>
<path style="fill:#818181; stroke:none;" d="M32 13L33 14L32 13z"/>
<path style="fill:#7a6f52; stroke:none;" d="M35.3333 13.6667C35.2778 13.7222 35.2222 14.7778 35.6667 14.3333C35.7222 14.2778 35.7778 13.2222 35.3333 13.6667z"/>
<path style="fill:#d6d6d6; stroke:none;" d="M3.33333 14.6667C3.27778 14.7222 3.22222 15.7778 3.66667 15.3333C3.72222 15.2778 3.77778 14.2222 3.33333 14.6667z"/>
<path style="fill:#d7d7d7; stroke:none;" d="M32.3333 14.6667C32.2778 14.7222 32.2222 15.7778 32.6667 15.3333C32.7222 15.2778 32.7778 14.2222 32.3333 14.6667z"/>
<path style="fill:#949494; stroke:none;" d="M10 17L11 18L10 17z"/>
<path style="fill:#bebebe; stroke:none;" d="M20.3333 17.6667C20.2778 17.7222 20.2222 18.7778 20.6667 18.3333C20.7222 18.2778 20.7778 17.2222 20.3333 17.6667z"/>
<path style="fill:#cdcdcd; stroke:none;" d="M11 19L12 20L11 19z"/>
<path style="fill:#7d7d7d; stroke:none;" d="M19 19C19.6836 20.58 19.8048 20.7772 21 22L21 19L19 19z"/>
<path style="fill:#cecece; stroke:none;" d="M21 19C22.7952 21.5075 24.4925 23.2048 27 25C25.2048 22.4925 23.5075 20.7952 21 19z"/>
<path style="fill:#796f52; stroke:none;" d="M0 20L0 23C0.6961 21.4463 0.696099 21.5537 0 20z"/>
<path style="fill:#959595; stroke:none;" d="M13 20L14 21L13 20M17 20L18 21L17 20z"/>
<path style="fill:#585858; stroke:none;" d="M21 20C21.9684 22.9482 23.1415 23.8159 26 25C24.4511 22.8643 23.1357 21.5489 21 20z"/>
<path style="fill:#b4b4b4; stroke:none;" d="M32.3333 20.6667C32.2778 20.7222 32.2222 21.7778 32.6667 21.3333C32.7222 21.2778 32.7778 20.2222 32.3333 20.6667z"/>
<path style="fill:#b3b3b3; stroke:none;" d="M3 21L4 22L3 21z"/>
<path style="fill:#978555; stroke:none;" d="M35.3333 21.6667C35.2778 21.7222 35.2222 22.7778 35.6667 22.3333C35.7222 22.2778 35.7778 21.2222 35.3333 21.6667z"/>
<path style="fill:#818181; stroke:none;" d="M3 22L4 23L3 22M32 22L33 23L32 22z"/>
<path style="fill:#cbad5a; stroke:none;" d="M0 23L0 36L13 36C7.99195 31.7869 4.21313 28.008 0 23z"/>
<path style="fill:#a3a3a3; stroke:none;" d="M22 23L23 24L22 23z"/>
<path style="fill:#cbad5a; stroke:none;" d="M35 23C32.4579 28.7789 28.7789 32.4579 23 35C26.9587 36.6611 31.7366 36 36 36C36 31.7366 36.6611 26.9587 35 23z"/>
<path style="fill:#a6a6a6; stroke:none;" d="M4 24L5 25L4 24z"/>
<path style="fill:#b8b8b8; stroke:none;" d="M23 24L24 25L23 24z"/>
<path style="fill:#a6a6a6; stroke:none;" d="M31 24L32 25L31 24z"/>
<path style="fill:#c9c9c9; stroke:none;" d="M24 25L25 26L24 25z"/>
<path style="fill:#888888; stroke:none;" d="M25.6667 25.3333C25.2222 25.7778 26.2778 25.7222 26.3333 25.6667C26.7778 25.2222 25.7222 25.2778 25.6667 25.3333M5 26L6 27L5 26z"/>
<path style="fill:#898989; stroke:none;" d="M30 26L31 27L30 26z"/>
<path style="fill:#b4b4b4; stroke:none;" d="M6 27L7 28L6 27M29 27L30 28L29 27z"/>
<path style="fill:#c4c4c4; stroke:none;" d="M7 28L8 29L7 28M28 28L29 29L28 28z"/>
<path style="fill:#b4b4b4; stroke:none;" d="M8 29L9 30L8 29M27 29L28 30L27 29z"/>
<path style="fill:#8a8a8a; stroke:none;" d="M9 30L10 31L9 30M26 30L27 31L26 30z"/>
<path style="fill:#a6a6a6; stroke:none;" d="M11 31L12 32L11 31M24 31L25 32L24 31z"/>
<path style="fill:#828282; stroke:none;" d="M13 32L14 33L13 32z"/>
<path style="fill:#d8d8d8; stroke:none;" d="M14.6667 32.3333C14.2222 32.7778 15.2778 32.7222 15.3333 32.6667C15.7778 32.2222 14.7222 32.2778 14.6667 32.3333z"/>
<path style="fill:#b3b3b3; stroke:none;" d="M21 32L22 33L21 32z"/>
<path style="fill:#828282; stroke:none;" d="M22 32L23 33L22 32z"/>
<path style="fill:#796f52; stroke:none;" d="M13.6667 35.3333C13.2222 35.7778 14.2778 35.7222 14.3333 35.6667C14.7778 35.2222 13.7222 35.2778 13.6667 35.3333M20 35C21.2484 35.6848 21.5484 35.7488 23 36C21.7516 35.3152 21.4516 35.2512 20 35z"/>
</svg>
