<?xml version="1.0" standalone="yes"?>
<svg width="36" height="36">
<path style="fill:#000000; stroke:none;" d="M0 0L0 36L36 36L36 0L0 0z"/>
<path style="fill:#ffffff; stroke:none;" d="M3 3L3 20C5.98674 19.056 8.37601 17.7143 11 16C12.1607 18.7873 13.478 21.3921 15 24C20.6585 17.1773 23.427 9.34933 31 4C23.3512 0.790428 11.2878 3 3 3z"/>
<path style="fill:#00a651; stroke:none;" d="M16 24L14 24C13.2608 21.4325 12.3175 19.3272 11 17C8.12633 18.0453 5.61794 19.4144 3 21L15 32C21.8899 26.427 25.8803 18.2122 34 14C33.1205 10.306 33.0025 6.78572 33 3C24.6549 6.89204 19.4287 15.7668 16 24z"/>
<path style="fill:#cbeddc; stroke:none;" d="M33.3333 3.66667C33.2778 3.72221 33.2222 4.77779 33.6667 4.33333C33.7222 4.27777 33.7778 3.22223 33.3333 3.66667z"/>
<path style="fill:#9bdcbb; stroke:none;" d="M29 4L30 5L29 4z"/>
<path style="fill:#75cfa1; stroke:none;" d="M28 5L29 6L28 5z"/>
<path style="fill:#ffffff; stroke:none;" d="M33 5L33 11C33.9511 8.71472 33.9511 7.28528 33 5z"/>
<path style="fill:#5cc690; stroke:none;" d="M27 6L28 7L27 6M26 7L27 8L26 7z"/>
<path style="fill:#69cb99; stroke:none;" d="M25 8L26 9L25 8z"/>
<path style="fill:#89d6ae; stroke:none;" d="M24 9L25 10L24 9z"/>
<path style="fill:#b8e6cf; stroke:none;" d="M23 10L24 11L23 10z"/>
<path style="fill:#c3ead6; stroke:none;" d="M33 11L34 12L33 11z"/>
<path style="fill:#3aba79; stroke:none;" d="M22 12L23 13L22 12z"/>
<path style="fill:#7fd2a8; stroke:none;" d="M33 12L34 13L33 12M21 13L22 14L21 13z"/>
<path style="fill:#88d5ae; stroke:none;" d="M32 14L33 15L32 14z"/>
<path style="fill:#ffffff; stroke:none;" d="M33 14C26.1551 19.2153 20.2701 25.5054 16 33L34 33C34 27.0987 35.295 19.4692 33 14z"/>
<path style="fill:#41bd7d; stroke:none;" d="M30 15L31 16L30 15z"/>
<path style="fill:#90d8b3; stroke:none;" d="M10 16L11 17L10 16z"/>
<path style="fill:#92d9b5; stroke:none;" d="M19 16L20 17L19 16z"/>
<path style="fill:#75cfa1; stroke:none;" d="M29 16L30 17L29 16z"/>
<path style="fill:#c2ead5; stroke:none;" d="M8 17L9 18L8 17z"/>
<path style="fill:#6ccc9b; stroke:none;" d="M11 17L12 18L11 17z"/>
<path style="fill:#8fd8b3; stroke:none;" d="M28 17L29 18L28 17z"/>
<path style="fill:#5ec791; stroke:none;" d="M7 18L8 19L7 18z"/>
<path style="fill:#64c995; stroke:none;" d="M18 18L19 19L18 18z"/>
<path style="fill:#a5e0c2; stroke:none;" d="M27 18L28 19L27 18z"/>
<path style="fill:#92d9b5; stroke:none;" d="M5 19L6 20L5 19z"/>
<path style="fill:#62c894; stroke:none;" d="M12 19L13 20L12 19z"/>
<path style="fill:#aae1c5; stroke:none;" d="M26 19L27 20L26 19z"/>
<path style="fill:#c5ebd7; stroke:none;" d="M3 20L4 21L3 20z"/>
<path style="fill:#4ec186; stroke:none;" d="M17 20L18 21L17 20z"/>
<path style="fill:#a0debe; stroke:none;" d="M25 20L26 21L25 20z"/>
<path style="fill:#58c58d; stroke:none;" d="M13 21L14 22L13 21z"/>
<path style="fill:#95dab7; stroke:none;" d="M24 21L25 22L24 21z"/>
<path style="fill:#a9e1c4; stroke:none;" d="M3 22L4 23L3 22z"/>
<path style="fill:#48bf82; stroke:none;" d="M16 22L17 23L16 22z"/>
<path style="fill:#78d0a3; stroke:none;" d="M23 22L24 23L23 22z"/>
<path style="fill:#ffffff; stroke:none;" d="M3 23L3 33L15 33C11.8418 28.5195 8.26214 24.7889 3 23z"/>
<path style="fill:#84d4ab; stroke:none;" d="M5 23L6 24L5 23z"/>
<path style="fill:#4ec186; stroke:none;" d="M14 23L15 24L14 23M22 23L23 24L22 23z"/>
<path style="fill:#59c58e; stroke:none;" d="M8 25L9 26L8 25z"/>
<path style="fill:#77d0a2; stroke:none;" d="M9 26L10 27L9 26z"/>
<path style="fill:#b9e7cf; stroke:none;" d="M20 26L21 27L20 26z"/>
<path style="fill:#8fd8b3; stroke:none;" d="M10 27L11 28L10 27z"/>
<path style="fill:#84d4ab; stroke:none;" d="M19 27L20 28L19 27z"/>
<path style="fill:#a5e0c2; stroke:none;" d="M11 28L12 29L11 28z"/>
<path style="fill:#3fbc7c; stroke:none;" d="M18 28L19 29L18 28z"/>
<path style="fill:#aee3c8; stroke:none;" d="M12 29L13 30L12 29z"/>
<path style="fill:#a3dfc0; stroke:none;" d="M13 30L14 31L13 30z"/>
<path style="fill:#a0debe; stroke:none;" d="M17 30L18 31L17 30z"/>
<path style="fill:#87d5ad; stroke:none;" d="M14 31L15 32L14 31z"/>
<path style="fill:#40bc7d; stroke:none;" d="M16 31L17 32L16 31z"/>
<path style="fill:#6fcd9d; stroke:none;" d="M15 32L16 33L15 32z"/>
</svg>
