<!DOCTYPE svg PUBLIC "-//W3C//DTD SVG 20010904//EN" "http://www.w3.org/TR/2001/REC-SVG-20010904/DTD/svg10.dtd">
<svg version="1.0" xmlns="http://www.w3.org/2000/svg" width="36px" height="36px" viewBox="0 0 360 360" preserveAspectRatio="xMidYMid meet">
<g id="layer1" fill="#a89256" stroke="none">
 </g>
<g id="layer2" fill="#a1a1a1" stroke="none">
 <path d="M69 283 l-24 -28 28 24 c25 23 32 31 24 31 -2 0 -14 -12 -28 -27z"/>
 <path d="M280 285 c13 -14 26 -25 28 -25 3 0 -5 11 -18 25 -13 14 -26 25 -28 25 -3 0 5 -11 18 -25z"/>
 <path d="M139 243 c-13 -16 -12 -17 4 -4 9 7 17 15 17 17 0 8 -8 3 -21 -13z"/>
 <path d="M219 193 c-10 -11 -10 -14 -1 -9 8 5 12 -2 12 -23 0 -17 4 -31 8 -31 14 0 32 23 31 40 0 8 -4 5 -10 -9 -12 -29 -18 -25 -21 17 -3 37 -2 37 -19 15z"/>
 <path d="M120 145 c-18 -20 -21 -28 -12 -37 9 -9 15 -9 25 1 10 10 9 11 -5 6 -24 -10 -23 4 4 32 12 13 19 23 16 23 -2 0 -15 -11 -28 -25z"/>
 <path d="M70 75 c13 -14 26 -25 28 -25 3 0 -5 11 -18 25 -13 14 -26 25 -28 25 -3 0 5 -11 18 -25z"/>
 <path d="M279 73 l-24 -28 28 24 c15 14 27 26 27 28 0 8 -8 1 -31 -24z"/>
 </g>
<g id="layer3" fill="#cbad5a" stroke="none">
 <path d="M0 293 c1 -65 1 -67 14 -38 16 36 61 80 96 94 20 8 13 10 -42 10 l-68 1 0 -67z"/>
 <path d="M250 349 c35 -14 80 -58 96 -94 13 -29 13 -27 14 38 l0 67 -67 -1 c-56 0 -63 -2 -43 -10z"/>
 <path d="M1 68 l-1 -68 68 0 c64 1 66 1 37 14 -36 16 -80 61 -94 96 -8 20 -10 13 -10 -42z"/>
 <path d="M350 115 c0 -22 -60 -86 -95 -101 -29 -13 -27 -13 38 -14 l67 0 0 65 c0 36 -2 65 -5 65 -3 0 -5 -7 -5 -15z"/>
 </g>
<g id="layer4" fill="#545350" stroke="none">
 <path d="M120 349 c-150 -63 -159 -259 -15 -329 87 -42 191 -5 234 82 40 83 16 175 -58 224 -46 30 -120 41 -161 23z m138 -39 c130 -79 74 -280 -78 -280 -152 0 -208 201 -78 280 43 26 113 26 156 0z"/>
 <path d="M150 245 c-11 -13 -7 -15 28 -15 l41 0 -55 -51 c-30 -29 -54 -56 -54 -60 0 -19 21 -7 74 42 l56 51 0 -38 c0 -55 19 -30 27 34 l6 52 -55 0 c-37 0 -60 -5 -68 -15z"/>
 </g>
<g id="layer5" fill="#fcfcfc" stroke="none">
 <path d="M125 316 c-102 -44 -122 -172 -40 -245 64 -56 147 -50 204 14 53 61 50 143 -7 198 -48 46 -102 57 -157 33z m145 -109 c0 -50 -12 -77 -33 -77 -5 0 -7 16 -5 35 4 39 1 38 -69 -29 -35 -32 -45 -38 -55 -27 -11 10 -1 23 47 66 l60 54 -44 1 c-37 0 -42 2 -31 15 8 10 31 15 71 15 l59 0 0 -53z"/>
 </g>

</svg>