<!DOCTYPE svg PUBLIC "-//W3C//DTD SVG 20010904//EN" "http://www.w3.org/TR/2001/REC-SVG-20010904/DTD/svg10.dtd">
<svg version="1.0" xmlns="http://www.w3.org/2000/svg" width="36px" height="36px" viewBox="0 0 360 360" preserveAspectRatio="xMidYMid meet">
<g id="layer1" fill="#a89256" stroke="none">
 </g>
<g id="layer2" fill="#a1a1a1" stroke="none">
 <path d="M69 283 l-24 -28 28 24 c25 23 32 31 24 31 -2 0 -14 -12 -28 -27z"/>
 <path d="M280 285 c13 -14 26 -25 28 -25 3 0 -5 11 -18 25 -13 14 -26 25 -28 25 -3 0 5 -11 18 -25z"/>
 <path d="M104 259 c-3 -6 -1 -16 5 -22 9 -9 11 -8 6 6 -10 23 4 21 34 -5 l26 -23 -24 28 c-27 29 -36 33 -47 16z"/>
 <path d="M230 236 c0 -2 8 -10 18 -17 15 -13 16 -12 3 4 -13 16 -21 21 -21 13z"/>
 <path d="M185 150 c4 -6 -7 -10 -24 -10 -17 0 -31 -4 -31 -8 0 -14 23 -32 40 -31 8 0 5 4 -9 10 -29 12 -25 18 17 21 24 2 29 5 20 15 -12 15 -22 17 -13 3z"/>
 <path d="M70 75 c13 -14 26 -25 28 -25 3 0 -5 11 -18 25 -13 14 -26 25 -28 25 -3 0 5 -11 18 -25z"/>
 <path d="M279 73 l-24 -28 28 24 c15 14 27 26 27 28 0 8 -8 1 -31 -24z"/>
 </g>
<g id="layer3" fill="#cbad5a" stroke="none">
 <path d="M0 293 c1 -65 1 -67 14 -38 16 36 61 80 96 94 20 8 13 10 -42 10 l-68 1 0 -67z"/>
 <path d="M250 349 c35 -14 80 -58 96 -94 13 -29 13 -27 14 38 l0 67 -67 -1 c-56 0 -63 -2 -43 -10z"/>
 <path d="M1 68 l-1 -68 68 0 c64 1 66 1 37 14 -36 16 -80 61 -94 96 -8 20 -10 13 -10 -42z"/>
 <path d="M350 115 c0 -22 -60 -86 -95 -101 -29 -13 -27 -13 38 -14 l67 0 0 65 c0 36 -2 65 -5 65 -3 0 -5 -7 -5 -15z"/>
 </g>
<g id="layer4" fill="#545350" stroke="none">
 <path d="M120 349 c-150 -63 -159 -259 -15 -329 87 -42 191 -5 234 82 40 83 16 175 -58 224 -46 30 -120 41 -161 23z m138 -39 c130 -79 74 -280 -78 -280 -152 0 -208 201 -78 280 43 26 113 26 156 0z"/>
 <path d="M110 251 c0 -5 23 -35 51 -65 l51 -56 -38 0 c-55 0 -30 -19 34 -27 l52 -6 0 55 c0 37 -5 60 -15 68 -13 11 -15 7 -15 -28 l0 -41 -51 55 c-50 52 -69 64 -69 45z"/>
 </g>
<g id="layer5" fill="#fcfcfc" stroke="none">
 <path d="M125 316 c-102 -44 -122 -172 -40 -245 64 -56 147 -50 204 14 53 61 50 143 -7 198 -48 46 -102 57 -157 33z m52 -103 l52 -58 1 44 c0 37 2 42 15 31 10 -8 15 -31 15 -71 l0 -59 -53 0 c-50 0 -77 12 -77 33 0 5 16 7 35 5 39 -4 38 -1 -28 69 -34 36 -42 63 -19 63 4 0 30 -26 59 -57z"/>
 </g>

</svg>